<?xml version="1.0" encoding="UTF-8"?>
<!DOCTYPE svg PUBLIC "-//W3C//DTD SVG 1.0//EN" "http://www.w3.org/TR/2001/REC-SVG-20010904/DTD/svg10.dtd">
<!-- Creator: CorelDRAW 2021.5 -->
<svg xmlns="http://www.w3.org/2000/svg" xml:space="preserve" width="5cm" height="5cm" version="1.0" shape-rendering="geometricPrecision" text-rendering="geometricPrecision" image-rendering="optimizeQuality" fill-rule="evenodd" clip-rule="evenodd"
viewBox="0 0 2585.33 2585.33"
 xmlns:xlink="http://www.w3.org/1999/xlink"
 xmlns:xodm="http://www.corel.com/coreldraw/odm/2003">
 <g id="Layer_x0020_1">
  <metadata id="CorelCorpID_0Corel-Layer"/>
  <rect fill="#021641" width="2585.33" height="2585.33" rx="430.89" ry="430.89"/>
  <g id="_2279561444096">
   <path fill="#D3E070" d="M809.61 656.14l128.54 0c116.7,0 212.18,95.47 212.18,212.18 0,116.7 -95.48,212.17 -212.18,212.17l-128.54 0 -83.64 0 0 125.37 0 86.81c0,116.71 -95.47,212.18 -212.17,212.18 -116.71,0 -212.18,-95.47 -212.18,-212.18l0 -86.81 0 -549.72 507.98 0z"/>
   <path fill="#E6E6E6" d="M1929.19 809.61l0 128.54c0,116.7 -95.47,212.18 -212.18,212.18 -116.7,0 -212.17,-95.48 -212.17,-212.18l0 -128.54 0 -83.64 -125.37 0 -86.81 0c-116.71,0 -212.18,-95.47 -212.18,-212.17 0,-116.71 95.47,-212.18 212.18,-212.18l86.81 0 549.72 0 0 507.98z"/>
   <path fill="#5784FF" d="M1775.73 1929.19l-128.54 0c-116.7,0 -212.18,-95.47 -212.18,-212.18 0,-116.7 95.48,-212.17 212.18,-212.17l128.54 0 83.64 0 0 -125.37 0 -86.81c0,-116.71 95.47,-212.18 212.17,-212.18 116.71,0 212.18,95.47 212.18,212.18l0 86.81 0 549.72 -507.98 0z"/>
   <path fill="#34C78A" d="M656.14 1775.73l0 -128.54c0,-116.7 95.47,-212.18 212.18,-212.18 116.7,0 212.17,95.48 212.17,212.18l0 128.54 0 83.64 125.37 0 86.81 0c116.71,0 212.18,95.47 212.18,212.17 0,116.71 -95.47,212.18 -212.18,212.18l-86.81 0 -549.72 0 0 -507.98z"/>
  </g>
 </g>
</svg>
