<?xml version="1.0" encoding="UTF-8"?>
<!DOCTYPE svg PUBLIC "-//W3C//DTD SVG 1.0//EN" "http://www.w3.org/TR/2001/REC-SVG-20010904/DTD/svg10.dtd">
<!-- Creator: CorelDRAW 2021.5 -->
<svg xmlns="http://www.w3.org/2000/svg" xml:space="preserve" width="19.3999cm" height="3cm" version="1.0" shape-rendering="geometricPrecision" text-rendering="geometricPrecision" image-rendering="optimizeQuality" fill-rule="evenodd" clip-rule="evenodd"
viewBox="0 0 19298.45 2984.32"
 xmlns:xlink="http://www.w3.org/1999/xlink"
 xmlns:xodm="http://www.corel.com/coreldraw/odm/2003">
 <g id="Layer_x0020_1">
  <metadata id="CorelCorpID_0Corel-Layer"/>
  <g id="_2315595300672">
   <g>
    <path fill="#E6E6E6" fill-rule="nonzero" d="M19020.21 1073.62l0.13 202.14c-136.32,-136.32 -345.75,-253.91 -622.94,-253.91 -421.65,0 -818.22,213.19 -972.06,602.06 -42.2,106.67 -65.52,225.98 -65.52,355.11 0,128.98 23.14,248.22 65.01,354.89 43.8,111.57 108.18,209.6 188.04,290.77 82.13,83.42 181.3,149.36 292.09,194.25 108.99,44.17 229.33,67.94 355.77,67.94 90.82,0 182.05,-11.85 272.12,-35.95 88.56,-23.68 176.16,-59.2 261.28,-106.82 30.77,-17.19 60.86,-36.43 90.01,-57.55 28.91,-21.01 56.37,-43.43 82.11,-67.26l54.08 -50.03 0 288.26 160.46 0c45.14,0 75.36,-5.73 94.91,-13.82 16.84,-6.98 22.59,-12.71 22.74,-16.03l-0.13 -1783.88 -160.44 0c-46.23,0 -76.6,5.64 -95.95,13.67 -16.51,6.84 -21.58,12.64 -21.72,16.16zm-323.86 244c130.03,84.21 222.88,205.66 278.35,342.75 20.21,50.16 35.49,102.51 45.68,156 10.34,54.23 15.51,109.47 15.51,164.51 0,54.89 -5.16,109.97 -15.46,164.01 -10.21,53.51 -25.39,105.77 -45.53,155.52 -99.98,247.17 -309.8,402.41 -577.5,407.55 -442.71,8.51 -759.57,-342.62 -759.57,-785.66 0,-111.7 19.27,-214.39 54.32,-305.88 179.8,-418 631.14,-540.44 1004.19,-298.8z"/>
    <path fill="#E6E6E6" fill-rule="nonzero" d="M15680.75 1043.79l-209.99 0c-63.26,0 -95.06,7.39 -110.37,17.04 -5.25,3.28 -6.78,7.24 -7.15,10.65l655.61 874.12 -685.81 911.92 172.36 0c39.27,0 66.92,-6.73 86.53,-16.03 17.73,-8.44 28.58,-18.96 35.42,-28.14l519.84 -709.15 552.2 753.32 206.25 0c40.35,0 70.2,-6.1 90.84,-14.65 15.13,-6.26 23.57,-11.15 26.05,-13.87l-706.24 -939.15 635.06 -846.82c-91.39,-1.93 -264.99,-5.2 -298.12,44.39 -157.07,210.93 -310.59,426.6 -465.34,639.48l-497.14 -683.12z"/>
    <path fill="#E6E6E6" fill-rule="nonzero" d="M11587.37 1073.62l0 1783.9 160.47 0c28.16,0 117.52,-4.72 117.52,-41.15l0 -1044.36c0,-88.37 13.97,-174.09 43.43,-251.28 27.9,-73.1 69.82,-138.6 126.99,-191.49 32.43,-29.98 68.47,-55.24 107.06,-74.72 38.22,-19.35 79.05,-33.24 121.37,-40.78 134.95,-24.01 228.02,7.26 357.76,55.83 52.79,20.03 87.99,33.41 122.3,-24.25l30.55 -50.4c14.46,-23.53 29.04,-47.28 42.93,-71.38 -323.69,-175.84 -747.17,-127.49 -959.33,199.08l-3.43 -278.83c-21.3,0.07 -267.64,-0.39 -267.64,29.81z"/>
    <path fill="#E6E6E6" fill-rule="nonzero" d="M10041.76 545.91c0,165.95 0,331.91 0,497.88 -59.79,0 -119.57,0 -179.38,0 -16.12,0 -117.3,1.4 -117.67,29.83 0.04,41.15 0.09,82.29 0.13,123.42 98.99,0 197.95,0 296.92,0 0,376.74 0,753.47 0,1130.21 0,86.9 7.55,165.62 24.69,234.46 16.73,67.33 42.66,125.43 79.6,172.65 36.93,47.15 85.55,84.06 147.94,109.29 63.96,25.83 142.66,39.52 238.16,39.52 46.16,0 92.04,-3.98 137.07,-11.9 95.04,-16.82 225.91,-64.92 301.67,-122.59 -8.29,-19.22 -15.64,-36.8 -23.94,-56.03 -12.51,-28.21 -21.85,-44.17 -30.18,-49.2 -3.41,-2.06 -10.47,0.13 -21.84,5.99 -40.24,20.69 -81.08,41.09 -125.08,52.61 -16.22,4.22 -33.04,7.57 -50.27,9.82 -17.25,2.21 -34.27,3.41 -50.78,3.41 -71.49,0 -129.33,-11.52 -176.12,-32.85 -48.39,-22.07 -84.45,-54.41 -111,-95.17 -26.24,-40.26 -42.79,-88.48 -52.64,-142.95 -9.6,-52.92 -12.95,-111.29 -12.95,-173.78 0,-357.82 0,-715.64 0,-1073.48 174.87,0 349.73,0 524.61,0 15.53,0 90.57,-6.06 91.34,-29.81 -0.06,-41.15 -0.09,-82.27 -0.13,-123.44 -205.27,0 -410.56,0 -615.82,0 0,-181.59 0,-363.18 0,-544.79 -152.4,0 -274.35,4.92 -274.35,46.91z"/>
    <path fill="#E6E6E6" fill-rule="nonzero" d="M9134.6 2827.68l-0.13 -1787.75c-67.57,-0.31 -277.33,-0.02 -278.09,30.07l0.11 1059.05c0.02,218.39 -85.83,431.51 -322.61,536.61 -61.91,27.49 -127.79,41.61 -194.47,42.23l-9.19 0.13c-96.42,0 -185.04,-13.97 -263.96,-41.35 -270.63,-93.86 -390.51,-323.18 -390.51,-602.87l-0.02 -1023.86c-70.08,-0.28 -277.52,0 -278.25,30.05l0.09 1044.66c0,118.2 18.98,224.47 54.32,317.45 36.28,95.39 89.88,177.11 158.01,243.72 69.96,68.36 155.7,121.15 254.19,156.81 98.51,35.65 210.1,54.23 331.76,54.23l4.37 -0.04c82.13,-1.47 166.72,-12.95 251.26,-35.65 169.5,-45.53 276.12,-110.08 408.64,-220.73l0 227.09c93.86,-0.04 167.88,-0.48 217.25,-7.39 37.13,-5.2 57.01,-11.88 57.23,-22.46z"/>
    <path fill="#E6E6E6" fill-rule="nonzero" d="M4557.44 314.89l0.13 2542.64c30.05,-0.04 296.33,-3.21 296.33,-29.85l0 -1952.08 1618.01 1981.93c20.95,-0.04 189.11,2.05 189.11,-29.85l0 -2542.86c-72.03,-0.5 -291.96,-1.2 -292.76,30.07l0.11 1948.54 -298.63 -358.56 -1315.78 -1619.82c-19.83,0.04 -195.83,-0.11 -196.52,29.83z"/>
    <path fill="#E6E6E6" fill-rule="nonzero" d="M13590.99 2816.8c110.65,43.49 233.41,66.37 363.02,66.37 163.18,0 352.81,-39.27 524.02,-114.02 143.21,-62.54 273.22,-149.71 363.33,-259.09 -35.64,-28.14 -62.08,-47.41 -83.77,-56.94 -19.38,-8.49 -35.56,-8.02 -54.97,2.05 -13.6,7 -31.45,20.99 -53.95,38.62 -32.43,25.41 -73.94,57.93 -130.11,91.58 -68.66,41.07 -135.05,70.78 -204.73,90.25 -69.85,19.53 -142.4,28.69 -223.16,28.69 -189.31,0 -370.4,-65.98 -507.37,-181.37 -130.73,-110.13 -221.34,-265.26 -240.78,-450.96l-3.72 -35.54 1509.57 0c52.11,0 82.66,-6.43 100.28,-15.92 10.93,-5.88 15.59,-13.16 17.71,-20.29 2.19,-22.76 3.85,-45.22 4.98,-67.31 1.09,-21.63 1.68,-43.74 1.68,-66.21 0,-131.32 -20.34,-246.27 -56.99,-345.47 -38.88,-105.38 -96.26,-193.29 -167.22,-264.55 -67.35,-67.61 -147.34,-120.54 -235.71,-159.42 -93.46,-41.13 -196.26,-66.56 -303.33,-77.1 -19.38,-1.86 -39.27,-3.35 -59.41,-4.31 -18.48,-0.88 -38.46,-1.36 -59.68,-1.36 -153.07,0 -297.82,28.63 -428.52,81.48 -133.63,54.04 -252.75,133.42 -351.11,233.35 -81.54,82.79 -147.13,182.24 -191.71,294.38 -42.73,107.52 -66.3,227.1 -66.3,355.31 0,132.91 22.48,253.67 63.33,360.4 42.73,111.64 105.66,208.2 184.02,287.52 81.37,82.33 180.01,146.4 290.6,189.86zm1080.5 -940.88l-1339.57 0 3.41 -35.3c18.09,-186.88 93.07,-350.85 212.6,-468.62 115.24,-113.54 271.53,-183.99 457.78,-190.56 196.41,-6.98 361.89,57.34 482.9,172.05 124.08,117.65 200.68,287.91 215.02,487.91l2.49 34.53 -34.62 0z"/>
   </g>
  </g>
  <g id="_2315595299184">
   <path fill="#D3E070" d="M764.84 533.77l193.55 0c175.71,0 319.46,143.74 319.46,319.47 0,175.71 -143.74,319.46 -319.46,319.46l-193.55 0 -125.93 0 0 188.76 0 130.7c0,175.71 -143.72,319.46 -319.46,319.46 -175.71,0 -319.46,-143.74 -319.46,-319.46l0 -130.7 0 -827.69 764.84 0z"/>
   <path fill="#E6E6E6" d="M2450.54 764.84l0 193.55c0,175.71 -143.74,319.46 -319.47,319.46 -175.71,0 -319.46,-143.74 -319.46,-319.46l0 -193.55 0 -125.93 -188.76 0 -130.7 0c-175.71,0 -319.46,-143.72 -319.46,-319.46 0,-175.71 143.74,-319.46 319.46,-319.46l130.7 0 827.69 0 0 764.84z"/>
   <path fill="#5784FF" d="M2219.48 2450.54l-193.55 0c-175.71,0 -319.46,-143.74 -319.46,-319.47 0,-175.71 143.74,-319.46 319.46,-319.46l193.55 0 125.93 0 0 -188.76 0 -130.7c0,-175.71 143.72,-319.46 319.46,-319.46 175.71,0 319.46,143.74 319.46,319.46l0 130.7 0 827.69 -764.84 0z"/>
   <path fill="#34C78A" d="M533.77 2219.48l0 -193.55c0,-175.71 143.74,-319.46 319.47,-319.46 175.71,0 319.46,143.74 319.46,319.46l0 193.55 0 125.93 188.76 0 130.7 0c175.71,0 319.46,143.72 319.46,319.46 0,175.71 -143.74,319.46 -319.46,319.46l-130.7 0 -827.69 0 0 -764.84z"/>
  </g>
 </g>
</svg>
